<?xml version="1.0" encoding="UTF-8"?>
<!-- Generated by Pixelmator Pro 4.0 -->
<svg width="1024" height="1024" viewBox="0 0 1024 1024" xmlns="http://www.w3.org/2000/svg">
    <path id="Rakete" fill="#000000" fill-rule="evenodd" stroke="none" d="M 618.651184 765.023254 L 618.651184 765.023254 C 618.651184 858.731079 645.441833 896 660.325562 896 C 675.20929 896 704.976746 831.94043 704.976746 738.232544 C 704.976746 644.524719 668.535583 556.651123 621.62793 556.651123 L 621.62793 512 C 621.62793 299.921875 547.441467 128 511.488373 128 C 475.535248 128 401.348846 299.921875 401.348846 512 L 401.348846 556.651123 C 354.441132 556.651123 318 644.524719 318 738.232544 C 318 831.94043 347.767456 896 362.651154 896 C 377.534882 896 404.325592 858.731079 404.325592 765.023254 L 618.651184 765.023254 Z M 511.488373 446.511658 C 493.404083 446.511658 478.744171 461.171692 478.744171 479.255798 C 478.744171 497.339905 493.404083 512 511.488373 512 C 529.572693 512 544.232544 497.339905 544.232544 479.255798 C 544.232544 461.171692 529.572693 446.511658 511.488373 446.511658 Z M 511.488373 544.744141 C 488.472382 544.744141 469.813965 563.402466 469.813965 586.418579 C 469.813965 609.434814 488.472382 628.093018 511.488373 628.093018 C 534.504333 628.093018 553.162781 609.434814 553.162781 586.418579 C 553.162781 563.402466 534.504333 544.744141 511.488373 544.744141 Z M 585.906982 776.930237 C 585.906982 776.930237 580.504333 803.947144 576.976746 821.581421 C 575.413879 830.213684 567.888794 836.484375 559.116272 836.465088 L 463.860474 836.465088 C 455.087921 836.484375 447.562866 830.213684 446 821.581421 C 442.472382 803.947144 437.069763 776.930237 437.069763 776.930237 L 585.906982 776.930237 Z"/>
</svg>
